<?xml version="1.0" encoding="UTF-8" standalone="no"?>
<!-- Created with Inkscape (http://www.inkscape.org/) -->

<svg
   xmlns:dc="http://purl.org/dc/elements/1.1/"
   xmlns:cc="http://creativecommons.org/ns#"
   xmlns:rdf="http://www.w3.org/1999/02/22-rdf-syntax-ns#"
   xmlns:svg="http://www.w3.org/2000/svg"
   xmlns="http://www.w3.org/2000/svg"
   xmlns:sodipodi="http://sodipodi.sourceforge.net/DTD/sodipodi-0.dtd"
   xmlns:inkscape="http://www.inkscape.org/namespaces/inkscape"
   width="116.6398mm"
   height="11.684mm"
   viewBox="0 0 413.29063 41.4"
   id="svg2"
   version="1.1"
   inkscape:version="0.91 r13725"
   sodipodi:docname="logotext.svg">
  <defs
     id="defs4" />
  <sodipodi:namedview
     id="base"
     pagecolor="#ffffff"
     bordercolor="#666666"
     borderopacity="1.0"
     inkscape:pageopacity="0.0"
     inkscape:pageshadow="2"
     inkscape:zoom="0.98994949"
     inkscape:cx="65.414152"
     inkscape:cy="76.444991"
     inkscape:document-units="px"
     inkscape:current-layer="layer1"
     showgrid="false"
     inkscape:window-width="1536"
     inkscape:window-height="801"
     inkscape:window-x="-8"
     inkscape:window-y="-8"
     inkscape:window-maximized="1"
     fit-margin-top="0"
     fit-margin-left="0"
     fit-margin-right="0"
     fit-margin-bottom="0" />
  <metadata
     id="metadata7">
    <rdf:RDF>
      <cc:Work
         rdf:about="">
        <dc:format>image/svg+xml</dc:format>
        <dc:type
           rdf:resource="http://purl.org/dc/dcmitype/StillImage" />
        <dc:title></dc:title>
      </cc:Work>
    </rdf:RDF>
  </metadata>
  <g
     inkscape:label="Layer 1"
     inkscape:groupmode="layer"
     id="layer1"
     transform="translate(-8.2410521,-1007.2696)">
    <g
       transform="translate(-50.101526,673.47861)"
       style="font-style:normal;font-weight:normal;font-size:40px;line-height:125%;font-family:sans-serif;letter-spacing:0px;word-spacing:0px;fill:#000000;fill-opacity:1;stroke:none;stroke-width:1px;stroke-linecap:butt;stroke-linejoin:miter;stroke-opacity:1"
       id="flowRoot4136">
      <path
         d="m 72.262578,335.31102 -3.84,0 -10.08,30.48 3.4,0 3.2,-9.88 10.6,0 3.28,9.88 3.52,0 -10.08,-30.48 z m -6.64,17.96 3.04,-9.16 c 0.56,-1.92 1.12,-3.84 1.52,-5.68 l 0.12,0 c 0.4,1.8 0.92,3.72 1.56,5.8 l 3,9.04 -9.24,0 z"
         style="font-style:normal;font-variant:normal;font-weight:normal;font-stretch:normal;font-family:'Kozuka Gothic Pro';-inkscape-font-specification:'Kozuka Gothic Pro'"
         id="path4199" />
      <path
         d="m 116.35258,352.67102 c 0,-7.48 -4.24,-9.2 -6.92,-9.2 -3.36,0 -5.56,1.76 -7,4.36 l -0.08,0 c -0.92,-2.6 -3.120002,-4.36 -5.960002,-4.36 -3.44,0 -5.44,1.88 -6.64,4 l -0.12,0 -0.2,-3.52 -2.92,0 c 0.08,1.8 0.16,3.4 0.16,5.64 l 0,16.2 3.28,0 0,-13.36 c 0,-3.4 2.52,-6.2 5.36,-6.2 3.08,0 4.56,2.64 4.56,6.12 l 0,13.44 3.280002,0 0,-13.72 c 0,-3.32 2.44,-5.84 5.12,-5.84 3.28,0 4.8,2.72 4.8,6.96 l 0,12.6 3.28,0 0,-13.12 z"
         style="font-style:normal;font-variant:normal;font-weight:normal;font-stretch:normal;font-family:'Kozuka Gothic Pro';-inkscape-font-specification:'Kozuka Gothic Pro'"
         id="path4201" />
      <path
         d="m 137.04633,352.15102 c 0,-4.32 -1.6,-8.68 -7.76,-8.68 -2.44,0 -4.88,0.68 -6.64,1.84 l 0.8,2.28 c 1.48,-1.04 3.44,-1.56 5.32,-1.56 4.96,0 4.96,4.16 4.96,6 -8.08,-0.04 -12.64,2.8 -12.64,8.04 0,3.16 2.2,6.2 6.36,6.2 3.08,0 5.32,-1.56 6.44,-3.28 l 0.12,0 0.32,2.8 3.04,0 c -0.28,-1.52 -0.32,-3.4 -0.32,-5.2 l 0,-8.44 z m -3.28,6.44 c 0,2.64 -2.28,5.12 -5.52,5.12 -2,0 -3.76,-1.24 -3.76,-4.04 0,-4.6 5.16,-5.2 9.28,-5.2 l 0,4.12 z"
         style="font-style:normal;font-variant:normal;font-weight:normal;font-stretch:normal;font-family:'Kozuka Gothic Pro';-inkscape-font-specification:'Kozuka Gothic Pro'"
         id="path4203" />
      <path
         d="m 141.86945,343.99102 0,2.72 11.72,0 0,0.08 c -0.92,1.12 -1.72,2.16 -2.6,3.32 l -10.04,13.68 0,2 16.76,0 0,-2.72 -12.6,0 0,-0.08 c 0.88,-1.08 1.68,-2.12 2.52,-3.28 l 9.96,-13.6 0,-2.12 -15.72,0 z"
         style="font-style:normal;font-variant:normal;font-weight:normal;font-stretch:normal;font-family:'Kozuka Gothic Pro';-inkscape-font-specification:'Kozuka Gothic Pro'"
         id="path4205" />
      <path
         d="m 165.5907,337.87102 c 0,-1.24 -0.84,-2.24 -2.16,-2.24 -1.28,0 -2.2,1 -2.2,2.24 0,1.28 0.88,2.28 2.16,2.28 1.28,0 2.2,-0.88 2.2,-2.28 z m -0.52,6.12 -3.32,0 0,21.8 3.32,0 0,-21.8 z"
         style="font-style:normal;font-variant:normal;font-weight:normal;font-stretch:normal;font-family:'Kozuka Gothic Pro';-inkscape-font-specification:'Kozuka Gothic Pro'"
         id="path4207" />
      <path
         d="m 189.11258,352.51102 c 0,-7.4 -4.64,-9.04 -7.36,-9.04 -3.4,0 -5.92,1.92 -7,4.04 l -0.08,0 -0.2,-3.56 -2.96,0 c 0.08,1.76 0.16,3.4 0.16,5.64 l 0,16.2 3.32,0 0,-13.36 c 0,-3.8 2.88,-6.2 5.72,-6.2 3.8,0 5.08,3.12 5.08,6.68 l 0,12.88 3.32,0 0,-13.28 z"
         style="font-style:normal;font-variant:normal;font-weight:normal;font-stretch:normal;font-family:'Kozuka Gothic Pro';-inkscape-font-specification:'Kozuka Gothic Pro'"
         id="path4209" />
      <path
         d="m 210.29883,343.95102 -0.16,3.28 -0.08,0 c -0.92,-1.76 -2.88,-3.76 -6.6,-3.76 -4.72,0 -9.44,4 -9.44,11.56 0,6.12 3.72,10.72 8.92,10.72 3.32,0 5.64,-1.68 6.76,-3.72 l 0.08,0 0,2.6 c 0,5.76 -2.92,7.88 -6.92,7.88 -2.6,0 -4.72,-0.8 -6.12,-1.64 l -0.88,2.6 c 1.64,1.12 4.36,1.72 6.84,1.72 10.32,0 10.4,-8.72 10.4,-12.52 l 0,-12.72 c 0,-2.68 0.08,-4.44 0.2,-6 l -3,0 z m -0.56,12.76 c 0,4.52 -3.36,6.4 -5.84,6.4 -4.24,0 -6.48,-3.64 -6.48,-8.28 0,-5.28 2.68,-8.68 6.52,-8.68 3.04,0 5.8,2.4 5.8,6.2 l 0,4.36 z"
         style="font-style:normal;font-variant:normal;font-weight:normal;font-stretch:normal;font-family:'Kozuka Gothic Pro';-inkscape-font-specification:'Kozuka Gothic Pro'"
         id="path4211" />
      <path
         d="m 243.6582,336.31102 c -1.16,-0.72 -3.36,-1.44 -6.24,-1.44 -5.56,0 -9.32,3.4 -9.32,8.04 0,4.2 3.12,6.88 7.72,8.6 3.96,1.6 5.6,3.44 5.6,6.44 0,3.28 -2.4,5.48 -6.48,5.48 -2.48,0 -4.92,-0.8 -6.56,-1.88 l -0.92,2.76 c 1.52,1.08 4.52,1.92 7.28,1.92 6.56,0 10.08,-3.72 10.08,-8.56 0,-4.36 -2.52,-6.88 -7.44,-8.96 -4.08,-1.72 -5.92,-3.24 -5.92,-6.24 0,-2.2 1.6,-4.8 5.84,-4.8 2.56,0 4.48,0.84 5.36,1.4 l 1,-2.76 z"
         style="font-style:normal;font-variant:normal;font-weight:normal;font-stretch:normal;font-family:'Kozuka Gothic Pro';-inkscape-font-specification:'Kozuka Gothic Pro'"
         id="path4213" />
      <path
         d="m 250.91195,343.99102 -3.36,0 0,2.6 3.36,0 0,12.52 c 0,2.32 0.16,7.12 5.44,7.12 1.4,0 2.52,-0.2 3.24,-0.52 l -0.2,-2.56 c -0.56,0.2 -1.24,0.32 -2.24,0.32 -2.12,0 -2.96,-1.52 -2.96,-4.28 l 0,-12.6 5.64,0 0,-2.6 -5.64,0 0,-5.08 -3.28,1.12 0,3.96 z"
         style="font-style:normal;font-variant:normal;font-weight:normal;font-stretch:normal;font-family:'Kozuka Gothic Pro';-inkscape-font-specification:'Kozuka Gothic Pro'"
         id="path4215" />
      <path
         d="m 281.25258,343.99102 -3.32,0 0,13.56 c 0,3.84 -3.08,5.92 -5.68,5.92 -3.64,0 -4.88,-2.96 -4.88,-7.2 l 0,-12.28 -3.32,0 0,12.88 c 0,7.52 3.88,9.4 7.16,9.4 3.72,0 5.96,-2.2 6.96,-3.92 l 0.12,0 0.16,3.44 3,0 c -0.08,-1.68 -0.2,-3.56 -0.2,-5.8 l 0,-16 z"
         style="font-style:normal;font-variant:normal;font-weight:normal;font-stretch:normal;font-family:'Kozuka Gothic Pro';-inkscape-font-specification:'Kozuka Gothic Pro'"
         id="path4217" />
      <path
         d="m 305.44445,333.79102 -3.32,0 0,13.08 -0.08,0 c -1,-1.8 -3.16,-3.36 -6.36,-3.36 -5.08,0 -9.4,4.32 -9.4,11.68 0,6.72 3.92,11.08 8.96,11.08 3.52,0 6,-1.92 7.12,-4.2 l 0.12,0 0.16,3.72 2.96,0 c -0.08,-1.48 -0.16,-3.64 -0.16,-5.4 l 0,-26.6 z m -3.32,23.12 c 0,3.48 -2.4,6.64 -6,6.64 -4.28,0 -6.44,-3.92 -6.44,-8.52 0,-5 2.44,-8.84 6.56,-8.84 2.8,0 5.88,2.16 5.88,6.52 l 0,4.2 z"
         style="font-style:normal;font-variant:normal;font-weight:normal;font-stretch:normal;font-family:'Kozuka Gothic Pro';-inkscape-font-specification:'Kozuka Gothic Pro'"
         id="path4219" />
      <path
         d="m 326.78508,362.47102 c -1.36,0.56 -3,1.12 -5.72,1.12 -3.92,0 -7.36,-2.28 -7.4,-8.32 l 14.84,0 c 0.04,-0.52 0.08,-1.08 0.08,-1.84 0,-3.8 -1.72,-9.96 -8.44,-9.96 -5.88,0 -9.72,4.92 -9.72,11.76 0,6.52 3.8,11 10.16,11 3.32,0 5.6,-0.76 6.84,-1.36 l -0.64,-2.4 z m -13.04,-9.68 c 0.32,-3 2.08,-6.8 6.08,-6.8 4.28,0 5.52,3.84 5.48,6.8 l -11.56,0 z"
         style="font-style:normal;font-variant:normal;font-weight:normal;font-stretch:normal;font-family:'Kozuka Gothic Pro';-inkscape-font-specification:'Kozuka Gothic Pro'"
         id="path4221" />
      <path
         d="m 350.98758,352.51102 c 0,-7.4 -4.64,-9.04 -7.36,-9.04 -3.4,0 -5.92,1.92 -7,4.04 l -0.08,0 -0.2,-3.56 -2.96,0 c 0.08,1.76 0.16,3.4 0.16,5.64 l 0,16.2 3.32,0 0,-13.36 c 0,-3.8 2.88,-6.2 5.72,-6.2 3.8,0 5.08,3.12 5.08,6.68 l 0,12.88 3.32,0 0,-13.28 z"
         style="font-style:normal;font-variant:normal;font-weight:normal;font-stretch:normal;font-family:'Kozuka Gothic Pro';-inkscape-font-specification:'Kozuka Gothic Pro'"
         id="path4223" />
      <path
         d="m 358.33383,343.99102 -3.36,0 0,2.6 3.36,0 0,12.52 c 0,2.32 0.16,7.12 5.44,7.12 1.4,0 2.52,-0.2 3.24,-0.52 l -0.2,-2.56 c -0.56,0.2 -1.24,0.32 -2.24,0.32 -2.12,0 -2.96,-1.52 -2.96,-4.28 l 0,-12.6 5.64,0 0,-2.6 -5.64,0 0,-5.08 -3.28,1.12 0,3.96 z"
         style="font-style:normal;font-variant:normal;font-weight:normal;font-stretch:normal;font-family:'Kozuka Gothic Pro';-inkscape-font-specification:'Kozuka Gothic Pro'"
         id="path4225" />
      <path
         d="m 374.63445,347.67102 -0.2,-3.72 -3,0 c 0.08,2 0.16,4.2 0.16,7.04 l 0,23.72 3.32,0 0,-11.92 0.08,0 c 1.28,2.16 3.68,3.48 6.56,3.48 4.8,0 9.48,-3.68 9.48,-11.68 0,-6.68 -3.72,-11.12 -8.88,-11.12 -3.4,0 -5.92,1.52 -7.44,4.2 l -0.08,0 z m 0.28,5.28 c 0,-3.16 2.52,-6.76 6.24,-6.76 4.24,0 6.52,4 6.52,8.52 0,5.2 -2.36,8.88 -6.64,8.88 -2.96,0 -6.12,-2.24 -6.12,-6.48 l 0,-4.16 z"
         style="font-style:normal;font-variant:normal;font-weight:normal;font-stretch:normal;font-family:'Kozuka Gothic Pro';-inkscape-font-specification:'Kozuka Gothic Pro'"
         id="path4227" />
      <path
         d="m 404.64758,343.47102 c -5.56,0 -10.2,4.12 -10.2,11.56 0,7.04 4.32,11.24 9.92,11.24 4.84,0 10.2,-3.44 10.2,-11.56 0,-6.68 -3.96,-11.24 -9.92,-11.24 z m 6.52,11.36 c 0,4.92 -2.76,8.84 -6.72,8.84 -3.92,0 -6.6,-3.92 -6.6,-8.76 0,-4.2 1.96,-8.84 6.68,-8.84 4.76,0 6.64,4.88 6.64,8.76 z"
         style="font-style:normal;font-variant:normal;font-weight:normal;font-stretch:normal;font-family:'Kozuka Gothic Pro';-inkscape-font-specification:'Kozuka Gothic Pro'"
         id="path4229" />
      <path
         d="m 429.60133,343.63102 c -0.36,-0.04 -0.64,-0.12 -1,-0.12 -2.68,0 -4.96,1.96 -5.92,4.68 l -0.12,0 -0.16,-4.2 -2.92,0 c 0.12,2.08 0.16,4.2 0.16,6.52 l 0,15.28 3.32,0 0,-11.84 c 0,-3.68 1.84,-7.24 5.44,-7.24 0.48,0 0.84,0.04 1.2,0.08 l 0,-3.16 z"
         style="font-style:normal;font-variant:normal;font-weight:normal;font-stretch:normal;font-family:'Kozuka Gothic Pro';-inkscape-font-specification:'Kozuka Gothic Pro'"
         id="path4231" />
      <path
         d="m 434.34945,343.99102 -3.36,0 0,2.6 3.36,0 0,12.52 c 0,2.32 0.16,7.12 5.44,7.12 1.4,0 2.52,-0.2 3.24,-0.52 l -0.2,-2.56 c -0.56,0.2 -1.24,0.32 -2.24,0.32 -2.12,0 -2.96,-1.52 -2.96,-4.28 l 0,-12.6 5.64,0 0,-2.6 -5.64,0 0,-5.08 -3.28,1.12 0,3.96 z"
         style="font-style:normal;font-variant:normal;font-weight:normal;font-stretch:normal;font-family:'Kozuka Gothic Pro';-inkscape-font-specification:'Kozuka Gothic Pro'"
         id="path4233" />
      <path
         d="m 461.89008,352.15102 c 0,-4.32 -1.6,-8.68 -7.76,-8.68 -2.44,0 -4.88,0.68 -6.64,1.84 l 0.8,2.28 c 1.48,-1.04 3.44,-1.56 5.32,-1.56 4.96,0 4.96,4.16 4.96,6 -8.08,-0.04 -12.64,2.8 -12.64,8.04 0,3.16 2.2,6.2 6.36,6.2 3.08,0 5.32,-1.56 6.44,-3.28 l 0.12,0 0.32,2.8 3.04,0 c -0.28,-1.52 -0.32,-3.4 -0.32,-5.2 l 0,-8.44 z m -3.28,6.44 c 0,2.64 -2.28,5.12 -5.52,5.12 -2,0 -3.76,-1.24 -3.76,-4.04 0,-4.6 5.16,-5.2 9.28,-5.2 l 0,4.12 z"
         style="font-style:normal;font-variant:normal;font-weight:normal;font-stretch:normal;font-family:'Kozuka Gothic Pro';-inkscape-font-specification:'Kozuka Gothic Pro'"
         id="path4235" />
      <path
         d="m 471.6332,333.79102 -3.32,0 0,32 3.32,0 0,-32 z"
         style="font-style:normal;font-variant:normal;font-weight:normal;font-stretch:normal;font-family:'Kozuka Gothic Pro';-inkscape-font-specification:'Kozuka Gothic Pro'"
         id="path4237" />
    </g>
    <text
       xml:space="preserve"
       style="font-style:normal;font-weight:normal;font-size:40px;line-height:125%;font-family:sans-serif;letter-spacing:0px;word-spacing:0px;fill:#000000;fill-opacity:1;stroke:none;stroke-width:1px;stroke-linecap:butt;stroke-linejoin:miter;stroke-opacity:1"
       x="306.07623"
       y="1029.1287"
       id="text4194"
       sodipodi:linespacing="125%"><tspan
         sodipodi:role="line"
         id="tspan4196"
         x="306.07623"
         y="1029.1287"></tspan></text>
  </g>
</svg>
